<svg width="202" height="30" viewBox="0 0 202 30" fill="none" xmlns="http://www.w3.org/2000/svg">
<g filter="url(#filter0_d_12_32)">
<path d="M18.286 14.76C18.286 15.648 17.962 16.416 17.314 17.064C16.69 17.688 15.934 18 15.046 18H14.794C14.194 18 13.63 17.844 13.102 17.532C11.902 18.108 10.63 18.396 9.28597 18.396C6.81397 18.396 4.71397 17.532 2.98597 15.804C1.25797 14.076 0.393969 11.976 0.393969 9.504C0.393969 7.056 1.25797 4.968 2.98597 3.24C4.71397 1.512 6.81397 0.647999 9.28597 0.647999C10.486 0.647999 11.65 0.887999 12.778 1.368C13.354 0.887999 14.026 0.647999 14.794 0.647999H15.046C15.934 0.647999 16.69 0.971999 17.314 1.62C17.962 2.244 18.286 3 18.286 3.888V14.76ZM13.678 8.856C13.678 8.376 13.426 8.136 12.922 8.136C12.442 8.136 12.202 8.376 12.202 8.856C12.202 9.36 12.442 9.612 12.922 9.612C13.426 9.612 13.678 9.36 13.678 8.856ZM11.518 7.596C11.518 6.732 11.206 6 10.582 5.4C9.98197 4.776 9.24997 4.464 8.38597 4.464C7.52197 4.464 6.77797 4.776 6.15397 5.4C5.55397 6 5.25397 6.732 5.25397 7.596C5.25397 8.46 5.55397 9.204 6.15397 9.828C6.77797 10.428 7.52197 10.728 8.38597 10.728C9.24997 10.728 9.98197 10.428 10.582 9.828C11.206 9.204 11.518 8.46 11.518 7.596ZM12.742 11.52C12.742 11.208 12.622 10.932 12.382 10.692C12.142 10.452 11.854 10.332 11.518 10.332C11.182 10.332 10.894 10.452 10.654 10.692C10.438 10.932 10.33 11.208 10.33 11.52C10.33 11.856 10.438 12.144 10.654 12.384C10.894 12.624 11.182 12.744 11.518 12.744C11.854 12.744 12.142 12.624 12.382 12.384C12.622 12.144 12.742 11.856 12.742 11.52ZM37.5491 15.624C37.5491 16.296 37.3211 16.86 36.8651 17.316C36.4091 17.772 35.8571 18 35.2091 18C34.5371 18 33.9731 17.772 33.5171 17.316C33.0611 16.86 32.8331 16.308 32.8331 15.66V11.52C32.8331 10.824 32.5811 10.224 32.0771 9.72C31.5731 9.216 30.9731 8.964 30.2771 8.964C29.5571 8.964 28.9451 9.216 28.4411 9.72C27.9611 10.224 27.7211 10.824 27.7211 11.52V14.76C27.7211 15.648 27.3971 16.416 26.7491 17.064C26.1251 17.688 25.3691 18 24.4811 18H23.0051C22.1171 18 21.3491 17.688 20.7011 17.064C20.0771 16.416 19.7651 15.648 19.7651 14.76V3.888C19.7651 3 20.0771 2.244 20.7011 1.62C21.3491 0.971999 22.1171 0.647999 23.0051 0.647999H23.2571C23.9771 0.647999 24.6251 0.875999 25.2011 1.332C26.3051 0.851999 27.4571 0.612 28.6571 0.612C31.1051 0.612 33.2051 1.488 34.9571 3.24C36.7091 4.992 37.5731 7.128 37.5491 9.648V15.624ZM56.8498 3.888L56.8138 19.404C56.8138 21.852 55.9498 23.94 54.2218 25.668C52.4938 27.396 50.4058 28.26 47.9578 28.26C46.3018 28.26 44.7298 27.816 43.2418 26.928C42.6658 26.568 42.0658 26.016 41.4418 25.272C40.7218 24.504 40.3618 23.592 40.3618 22.536C40.3618 21.432 40.7458 20.496 41.5138 19.728C42.3058 18.984 43.2298 18.612 44.2858 18.612C45.3898 18.612 46.3138 19.02 47.0578 19.836C47.0818 19.86 47.3218 20.256 47.7778 21.024C48.0178 21.408 48.3418 21.6 48.7498 21.6C49.1338 21.6 49.4578 21.456 49.7218 21.168C50.0098 20.904 50.1538 20.58 50.1538 20.196L50.1178 18.108C49.4218 18.3 48.7018 18.396 47.9578 18.396C45.4858 18.396 43.3858 17.532 41.6578 15.804C39.9298 14.076 39.0658 11.976 39.0658 9.504C39.0658 7.056 39.9298 4.968 41.6578 3.24C43.3858 1.512 45.4858 0.647999 47.9578 0.647999C49.1338 0.647999 50.2738 0.875999 51.3778 1.332C51.9538 0.875999 52.6138 0.647999 53.3578 0.647999H53.6098C54.4978 0.647999 55.2538 0.971999 55.8778 1.62C56.5258 2.244 56.8498 3 56.8498 3.888ZM48.8218 9.324C49.0858 8.916 49.2178 8.46 49.2178 7.956C49.2178 6.996 48.8098 6.264 47.9938 5.76C47.5858 5.52 47.1298 5.4 46.6258 5.4C45.6898 5.4 44.9698 5.796 44.4658 6.588C44.2018 7.02 44.0698 7.476 44.0698 7.956C44.0698 8.916 44.4658 9.648 45.2578 10.152C45.6898 10.416 46.1938 10.548 46.7698 10.548C47.6338 10.548 48.3178 10.14 48.8218 9.324ZM46.4098 12.924C46.6738 12.54 46.6018 12.228 46.1938 11.988C45.8098 11.748 45.4978 11.82 45.2578 12.204C45.0178 12.588 45.0898 12.9 45.4738 13.14C45.8578 13.404 46.1698 13.332 46.4098 12.924ZM44.2858 10.656C44.2858 10.32 44.1538 10.032 43.8898 9.792C43.6498 9.528 43.3618 9.396 43.0258 9.396C42.6658 9.396 42.3658 9.528 42.1258 9.792C41.8858 10.032 41.7658 10.32 41.7658 10.656C41.7658 11.016 41.8858 11.316 42.1258 11.556C42.3658 11.796 42.6658 11.916 43.0258 11.916C43.3618 11.916 43.6498 11.796 43.8898 11.556C44.1538 11.316 44.2858 11.016 44.2858 10.656ZM76.2235 9.504C76.2235 11.976 75.3475 14.076 73.5955 15.804C71.8675 17.532 69.7795 18.396 67.3315 18.396C64.8835 18.396 62.7955 17.532 61.0675 15.804C59.3395 14.076 58.4755 11.976 58.4755 9.504C58.4755 7.056 59.3395 4.968 61.0675 3.24C62.7955 1.512 64.8835 0.647999 67.3315 0.647999C69.7795 0.647999 71.8675 1.512 73.5955 3.24C75.3475 4.968 76.2235 7.056 76.2235 9.504ZM70.5355 9.684C70.5355 9.348 70.4035 9.06 70.1395 8.82C69.8995 8.556 69.6115 8.424 69.2755 8.424C68.9395 8.424 68.6395 8.556 68.3755 8.82C68.1355 9.06 68.0155 9.348 68.0155 9.684C68.0155 10.02 68.1355 10.32 68.3755 10.584C68.6395 10.824 68.9395 10.944 69.2755 10.944C69.6115 10.944 69.8995 10.824 70.1395 10.584C70.4035 10.32 70.5355 10.02 70.5355 9.684ZM72.0835 13.14C72.0835 12.684 71.8555 12.456 71.3995 12.456C70.9435 12.456 70.7155 12.684 70.7155 13.14C70.7155 13.596 70.9435 13.824 71.3995 13.824C71.8555 13.824 72.0835 13.596 72.0835 13.14ZM68.9875 13.14C68.9875 12.444 68.7355 11.844 68.2315 11.34C67.7275 10.836 67.1155 10.584 66.3955 10.584C65.6755 10.584 65.0635 10.836 64.5595 11.34C64.0795 11.844 63.8395 12.444 63.8395 13.14C63.8395 14.22 64.2715 14.976 65.1355 15.408C65.5915 15.624 66.0115 15.732 66.3955 15.732C67.1155 15.732 67.7275 15.48 68.2315 14.976C68.7355 14.472 68.9875 13.86 68.9875 13.14ZM93.7226 5.94C93.7226 7.428 93.2066 8.688 92.1746 9.72C91.1426 10.752 89.8946 11.268 88.4306 11.268H86.6666C85.9466 11.268 85.5866 11.628 85.5866 12.348C85.5866 13.068 85.9466 13.428 86.6666 13.428H91.3106C91.9586 13.428 92.4986 13.656 92.9306 14.112C93.3866 14.568 93.6146 15.108 93.6146 15.732C93.6146 16.38 93.3866 16.932 92.9306 17.388C92.4746 17.82 91.9346 18.036 91.3106 18.036H86.3786C83.9786 18.036 81.9266 17.196 80.2226 15.516C78.5426 13.812 77.7026 11.748 77.7026 9.324C77.7026 6.924 78.5426 4.884 80.2226 3.204C81.9266 1.5 83.9786 0.647999 86.3786 0.647999H88.4306C89.8946 0.647999 91.1426 1.164 92.1746 2.196C93.2066 3.228 93.7226 4.476 93.7226 5.94ZM89.3666 5.868C89.3666 5.532 89.2466 5.244 89.0066 5.004C88.7666 4.764 88.4786 4.644 88.1426 4.644C87.7826 4.644 87.4826 4.764 87.2426 5.004C87.0026 5.244 86.8826 5.532 86.8826 5.868C86.8826 6.228 87.0026 6.528 87.2426 6.768C87.4826 7.008 87.7826 7.128 88.1426 7.128C88.4786 7.128 88.7666 7.008 89.0066 6.768C89.2466 6.528 89.3666 6.228 89.3666 5.868ZM86.9546 3.924C86.9546 3.348 86.6666 3.06 86.0906 3.06C85.5146 3.06 85.2266 3.348 85.2266 3.924C85.2266 4.5 85.5146 4.788 86.0906 4.788C86.6666 4.788 86.9546 4.5 86.9546 3.924ZM86.3426 7.164C86.3426 6.54 86.1146 6.012 85.6586 5.58C85.2266 5.124 84.6986 4.896 84.0746 4.896C83.4266 4.896 82.8746 5.124 82.4186 5.58C81.9866 6.012 81.7706 6.54 81.7706 7.164C81.7706 7.812 81.9866 8.364 82.4186 8.82C82.8746 9.252 83.4266 9.468 84.0746 9.468C84.6986 9.468 85.2266 9.252 85.6586 8.82C86.1146 8.364 86.3426 7.812 86.3426 7.164ZM122.752 15.624C122.752 16.296 122.524 16.86 122.068 17.316C121.612 17.772 121.06 18 120.412 18C119.74 18 119.176 17.772 118.72 17.316C118.264 16.86 118.036 16.308 118.036 15.66V11.52C118.036 10.824 117.784 10.224 117.28 9.72C116.776 9.216 116.176 8.964 115.48 8.964C114.784 8.964 114.184 9.192 113.68 9.648C113.176 10.104 112.924 10.668 112.924 11.34V15.624C112.924 16.296 112.696 16.86 112.24 17.316C111.784 17.772 111.232 18 110.584 18C109.912 18 109.348 17.772 108.892 17.316C108.436 16.86 108.208 16.308 108.208 15.66V11.52C108.208 10.824 107.956 10.224 107.452 9.72C106.948 9.216 106.348 8.964 105.652 8.964C104.932 8.964 104.32 9.216 103.816 9.72C103.312 10.224 103.072 10.824 103.096 11.52V14.76C103.096 15.648 102.772 16.416 102.124 17.064C101.5 17.688 100.744 18 99.8561 18H98.3801C97.4921 18 96.7241 17.688 96.0761 17.064C95.4521 16.416 95.1401 15.648 95.1401 14.76V3.888C95.1401 3 95.4521 2.244 96.0761 1.62C96.7241 0.971999 97.4921 0.647999 98.3801 0.647999H98.6321C99.3521 0.647999 100 0.875999 100.576 1.332C101.68 0.851999 102.832 0.612 104.032 0.612C105.832 0.612 107.476 1.116 108.964 2.124C110.452 1.14 112.084 0.647999 113.86 0.647999C116.308 0.647999 118.396 1.524 120.124 3.276C121.876 5.004 122.752 7.08 122.752 9.504V15.624ZM142.141 14.76C142.141 15.648 141.817 16.416 141.169 17.064C140.545 17.688 139.789 18 138.901 18H138.649C138.049 18 137.485 17.844 136.957 17.532C135.757 18.108 134.485 18.396 133.141 18.396C130.669 18.396 128.569 17.532 126.841 15.804C125.113 14.076 124.249 11.976 124.249 9.504C124.249 7.056 125.113 4.968 126.841 3.24C128.569 1.512 130.669 0.647999 133.141 0.647999C134.341 0.647999 135.505 0.887999 136.633 1.368C137.209 0.887999 137.881 0.647999 138.649 0.647999H138.901C139.789 0.647999 140.545 0.971999 141.169 1.62C141.817 2.244 142.141 3 142.141 3.888V14.76ZM137.533 8.856C137.533 8.376 137.281 8.136 136.777 8.136C136.297 8.136 136.057 8.376 136.057 8.856C136.057 9.36 136.297 9.612 136.777 9.612C137.281 9.612 137.533 9.36 137.533 8.856ZM135.373 7.596C135.373 6.732 135.061 6 134.437 5.4C133.837 4.776 133.105 4.464 132.241 4.464C131.377 4.464 130.633 4.776 130.009 5.4C129.409 6 129.109 6.732 129.109 7.596C129.109 8.46 129.409 9.204 130.009 9.828C130.633 10.428 131.377 10.728 132.241 10.728C133.105 10.728 133.837 10.428 134.437 9.828C135.061 9.204 135.373 8.46 135.373 7.596ZM136.597 11.52C136.597 11.208 136.477 10.932 136.237 10.692C135.997 10.452 135.709 10.332 135.373 10.332C135.037 10.332 134.749 10.452 134.509 10.692C134.293 10.932 134.185 11.208 134.185 11.52C134.185 11.856 134.293 12.144 134.509 12.384C134.749 12.624 135.037 12.744 135.373 12.744C135.709 12.744 135.997 12.624 136.237 12.384C136.477 12.144 136.597 11.856 136.597 11.52ZM161.405 15.624C161.405 16.296 161.177 16.86 160.721 17.316C160.265 17.772 159.713 18 159.065 18C158.393 18 157.829 17.772 157.373 17.316C156.917 16.86 156.689 16.308 156.689 15.66V11.52C156.689 10.824 156.437 10.224 155.933 9.72C155.429 9.216 154.829 8.964 154.133 8.964C153.413 8.964 152.801 9.216 152.297 9.72C151.817 10.224 151.577 10.824 151.577 11.52V14.76C151.577 15.648 151.253 16.416 150.605 17.064C149.981 17.688 149.225 18 148.337 18H146.861C145.973 18 145.205 17.688 144.557 17.064C143.933 16.416 143.621 15.648 143.621 14.76V3.888C143.621 3 143.933 2.244 144.557 1.62C145.205 0.971999 145.973 0.647999 146.861 0.647999H147.113C147.833 0.647999 148.481 0.875999 149.057 1.332C150.161 0.851999 151.313 0.612 152.513 0.612C154.961 0.612 157.061 1.488 158.813 3.24C160.565 4.992 161.429 7.128 161.405 9.648V15.624ZM180.705 3.888L180.669 19.404C180.669 21.852 179.805 23.94 178.077 25.668C176.349 27.396 174.261 28.26 171.813 28.26C170.157 28.26 168.585 27.816 167.097 26.928C166.521 26.568 165.921 26.016 165.297 25.272C164.577 24.504 164.217 23.592 164.217 22.536C164.217 21.432 164.601 20.496 165.369 19.728C166.161 18.984 167.085 18.612 168.141 18.612C169.245 18.612 170.169 19.02 170.913 19.836C170.937 19.86 171.177 20.256 171.633 21.024C171.873 21.408 172.197 21.6 172.605 21.6C172.989 21.6 173.313 21.456 173.577 21.168C173.865 20.904 174.009 20.58 174.009 20.196L173.973 18.108C173.277 18.3 172.557 18.396 171.813 18.396C169.341 18.396 167.241 17.532 165.513 15.804C163.785 14.076 162.921 11.976 162.921 9.504C162.921 7.056 163.785 4.968 165.513 3.24C167.241 1.512 169.341 0.647999 171.813 0.647999C172.989 0.647999 174.129 0.875999 175.233 1.332C175.809 0.875999 176.469 0.647999 177.213 0.647999H177.465C178.353 0.647999 179.109 0.971999 179.733 1.62C180.381 2.244 180.705 3 180.705 3.888ZM172.677 9.324C172.941 8.916 173.073 8.46 173.073 7.956C173.073 6.996 172.665 6.264 171.849 5.76C171.441 5.52 170.985 5.4 170.481 5.4C169.545 5.4 168.825 5.796 168.321 6.588C168.057 7.02 167.925 7.476 167.925 7.956C167.925 8.916 168.321 9.648 169.113 10.152C169.545 10.416 170.049 10.548 170.625 10.548C171.489 10.548 172.173 10.14 172.677 9.324ZM170.265 12.924C170.529 12.54 170.457 12.228 170.049 11.988C169.665 11.748 169.353 11.82 169.113 12.204C168.873 12.588 168.945 12.9 169.329 13.14C169.713 13.404 170.025 13.332 170.265 12.924ZM168.141 10.656C168.141 10.32 168.009 10.032 167.745 9.792C167.505 9.528 167.217 9.396 166.881 9.396C166.521 9.396 166.221 9.528 165.981 9.792C165.741 10.032 165.621 10.32 165.621 10.656C165.621 11.016 165.741 11.316 165.981 11.556C166.221 11.796 166.521 11.916 166.881 11.916C167.217 11.916 167.505 11.796 167.745 11.556C168.009 11.316 168.141 11.016 168.141 10.656ZM200.079 9.504C200.079 11.976 199.203 14.076 197.451 15.804C195.723 17.532 193.635 18.396 191.187 18.396C188.739 18.396 186.651 17.532 184.923 15.804C183.195 14.076 182.331 11.976 182.331 9.504C182.331 7.056 183.195 4.968 184.923 3.24C186.651 1.512 188.739 0.647999 191.187 0.647999C193.635 0.647999 195.723 1.512 197.451 3.24C199.203 4.968 200.079 7.056 200.079 9.504ZM194.391 9.684C194.391 9.348 194.259 9.06 193.995 8.82C193.755 8.556 193.467 8.424 193.131 8.424C192.795 8.424 192.495 8.556 192.231 8.82C191.991 9.06 191.871 9.348 191.871 9.684C191.871 10.02 191.991 10.32 192.231 10.584C192.495 10.824 192.795 10.944 193.131 10.944C193.467 10.944 193.755 10.824 193.995 10.584C194.259 10.32 194.391 10.02 194.391 9.684ZM195.939 13.14C195.939 12.684 195.711 12.456 195.255 12.456C194.799 12.456 194.571 12.684 194.571 13.14C194.571 13.596 194.799 13.824 195.255 13.824C195.711 13.824 195.939 13.596 195.939 13.14ZM192.843 13.14C192.843 12.444 192.591 11.844 192.087 11.34C191.583 10.836 190.971 10.584 190.251 10.584C189.531 10.584 188.919 10.836 188.415 11.34C187.935 11.844 187.695 12.444 187.695 13.14C187.695 14.22 188.127 14.976 188.991 15.408C189.447 15.624 189.867 15.732 190.251 15.732C190.971 15.732 191.583 15.48 192.087 14.976C192.591 14.472 192.843 13.86 192.843 13.14Z" fill="#291B00"/>
</g>
<defs>
<filter id="filter0_d_12_32" x="0.393982" y="0.612" width="200.685" height="28.648" filterUnits="userSpaceOnUse" color-interpolation-filters="sRGB">
<feFlood flood-opacity="0" result="BackgroundImageFix"/>
<feColorMatrix in="SourceAlpha" type="matrix" values="0 0 0 0 0 0 0 0 0 0 0 0 0 0 0 0 0 0 127 0" result="hardAlpha"/>
<feOffset dx="1" dy="1"/>
<feComposite in2="hardAlpha" operator="out"/>
<feColorMatrix type="matrix" values="0 0 0 0 0.992157 0 0 0 0 0.74902 0 0 0 0 0.8 0 0 0 1 0"/>
<feBlend mode="normal" in2="BackgroundImageFix" result="effect1_dropShadow_12_32"/>
<feBlend mode="normal" in="SourceGraphic" in2="effect1_dropShadow_12_32" result="shape"/>
</filter>
</defs>
</svg>
